<?xml version="1.0" encoding="UTF-8"?>
<svg version="1.1" viewBox="0 0 1024 1024" width="1280" height="1280" xmlns="http://www.w3.org/2000/svg">
<path transform="translate(548,116)" d="m0 0h2l-2 8-8 20-8 19 6-2 15-7 18-5h5l-1 8-8 16-8 10-1 3 9 1 24 6 29 10 29 14 16 10 16 12 14 12 13 13 9 11 8 10 12 19 12 23 10 25 7 25 5 25 5 34 4 45 3 63 2 10 10 14 12 18 9 14 6 12 10 19 9 21 7 20 2 10v7l-3 9-5 5-3 1h-11l-11-4-15-10-11-9-9-8h-2l-4 34-5 22-6 22-8 22-8 16-7 13-10 14-11 13-10 10-14 11-15 10-19 10-3 1 3 9 2 9v17l-7 3-19 3-25 1-32-1-23-3-7-3-5-6-22 1h-51l-3 5-8 3-21 3-15 1h-21l-21-1-20-3-7-3-1-1v-12l3-15 2-6-22-12-15-10-13-11-17-17-11-15-10-17-10-21-10-30-7-32-5-34-3 1-5 5-9 8-14 10-12 6-4 1h-10l-8-4-3-4-1-4v-10l4-16 9-24 8-17 12-22 16-26 13-18 4-6 1-9 2-49 3-41 5-39 5-29 6-24 7-20 8-19 12-22 10-16 13-16 11-12 10-10 11-9 17-12 13-8 21-11 25-10 24-7 20-4h3l-1-6v-20l5-12 6-9h3l2 7 2 14v5l5-5 8-9 8-7 15-12 13-8z" fill="#F6F3E3"/>
<path transform="translate(548,116)" d="m0 0h2l-2 8-8 20-8 19 6-2 15-7 18-5h5l-1 8-8 16-8 10-1 3 9 1 24 6 29 10 29 14 16 10 16 12 14 12 13 13 9 11 8 10 12 19 12 23 10 25 7 25 5 25 5 34 4 45 3 63 2 10 10 14 12 18 9 14 6 12 10 19 9 21 7 20 2 10v7l-3 9-5 5-3 1h-11l-11-4-15-10-11-9-9-8h-2l-4 34-5 22-6 22-8 22-8 16-7 13-10 14-11 13-10 10-14 11-15 10-19 10-5 1-1-4 15-9 12-11 8-10 11-21 5-15 4-17 2-16 1-26-2-27-5-29-9-30-9-20-11-21-14-21v-10l8-6 16-8 14-9 10-8 11-11 11-17 9-21 4-18 1-8 1-30-2-32-5-26-6-19-6-15-9-17-10-13-12-12-14-9-15-7-17-4-8-1h-14l-15 2-16 5-12 6-12 9-7 8-9 13-8 15-10 30-8 36-4 23-1 9 5 2 19 14 10 9 4 2 1 5-4 6-8 6h-2v2l-9 5-5 4h-2v2l-6 3h-2v2l-9 3v2l-9 4-7-1-10-5v-2l-5-1v-2l-4-1-7-4-4-4-13-9-8-7-2-6 11-10 13-10 14-10h2l-7-40-7-29-5-16-6-16-11-19-9-10-5-5-9-7-14-7-14-4-14-2h-16l-17 3-15 5-13 7-10 8-8 7-10 13-8 14-7 15-7 21-5 22-2 16-1 14v26l2 24 5 19 5 13 9 15 7 9 6 7 11 9 14 9 16 8 8 5 2 4v7l-6 10-7 10-9 16-9 19-8 22-6 23-4 24-1 13v32l3 24 4 17 7 19 7 13 6 8 9 10 14 10 7 4-1 4-5-1-19-10-15-10-13-11-17-17-11-15-10-17-10-21-10-30-7-32-5-34-3 1-5 5-9 8-14 10-12 6-4 1h-10l-8-4-3-4-1-4v-10l4-16 9-24 8-17 12-22 16-26 13-18 4-6 1-9 2-49 3-41 5-39 5-29 6-24 7-20 8-19 12-22 10-16 13-16 11-12 10-10 11-9 17-12 13-8 21-11 25-10 24-7 20-4h3l-1-6v-20l5-12 6-9h3l2 7 2 14v5l5-5 8-9 8-7 15-12 13-8z" fill="#343842"/>
<path transform="translate(709,691)" d="m0 0h1l4 24 2 27-1 26-3 21-6 21-5 12-8 15-8 10-9 9-14 9-5 2 6 13 2 9v17l-7 3-19 3-25 1-32-1-23-3-7-3-5-6-22 1h-51l-3 5-8 3-21 3-15 1h-21l-21-1-20-3-7-3-1-1v-12l3-15 2-6 2-1 1-4-5-2-9-6-10-8-10-11-9-16-7-18-4-15-3-18-1-11v-32l2-2 3 2v2l4 2 9 9 14 11 12 9 14 8 19 10 18 7 18 6 22 5 29 4 17 1h16l27-2 25-4 20-5 22-8 12-5 16-8 11-6 18-12 17-14 4-4h2v-2h2l2-4 9-10 1-2h2l2-4 7-10 4-7z" fill="#E5C9B4"/>
<path transform="translate(648,220)" d="m0 0h6l11 7 16 12 14 12 13 13 9 11 8 10 12 19 12 23 10 25 7 25 5 25 5 34 4 45 3 63 2 10 10 14 12 18 9 14 6 12 10 19 9 21 7 20 2 10v7l-3 9-5 5-3 1h-11l-11-4-15-10-11-9-9-8h-2l-4 34-5 22-6 22-8 22-8 16-7 13-10 14-11 13-10 10-14 11-15 10-19 10-5 1-1-4 15-9 12-11 8-10 11-21 5-15 4-17 2-16 1-26-2-27-5-29-9-30-9-20-11-21-14-21v-10l8-6 16-8 14-9 10-8 11-11 11-17 9-21 4-18 1-8 1-30-2-32-5-26-6-19-6-15-9-17-10-13-12-12-14-9-15-7-17-4-8-1h-14l-15 2-16 5-7 1 4-3 8-4 4-4 6-10 8-14 5-8 7-15 10-20z" fill="#202433"/>
<path transform="translate(322,565)" d="m0 0 5 1 16 9 12 6 3 5v7l-6 10-7 10-9 16-9 19-8 22-6 23-4 24-1 13v32l3 24 4 17 7 19 7 13 6 8 9 10 14 10 7 4-1 4-5-1-19-10-15-10-13-11-17-17-11-15-10-17-10-21-10-30-7-32-5-34-3 1-5 5-9 8-14 10-12 6-4 1h-10l-8-4-3-4-1-4v-10l3-13 3-1 2-10 4-10 12-6h3v-2l8-3 5-3h3v-2l8-3 13-8 15-8 11-6 11-7 3-2h3v-2l18-11 11-7 2-2h3v-2l9-6z" fill="#202433"/>
<path transform="translate(365,360)" d="m0 0h22l14 4 11 6 11 9 9 12 5 11 3 9 1 7v16l-4 16-6 12-9 11-8 7-12 7-14 4-16 1-16-3-16-8-9-7-9-10-8-17-3-16v-10l3-16 4-10 6-9h1l1 14 4 8 7 6 6 2h10l8-4 5-4 4-8 1-10-4-11-5-5-5-3-2-1-12-1 4-3 13-5z" fill="#0F1422"/>
<path transform="translate(636,360)" d="m0 0h22l16 5 12 7 8 7 9 12 6 14 3 13v17l-4 15-7 14-11 12-10 7-13 6-8 2-16 1-16-3-16-8-10-8-8-10-6-12-4-15v-20l4-16 6-11 3-5h2v13l3 9 5 5 6 4 3 1h11l8-4 7-8 2-6v-11l-5-10-8-6-2-1-13-1 3-3 9-4z" fill="#0F1422"/>
<path transform="translate(606,847)" d="m0 0 19 1 13 4 10 5 8 8 7 15 2 9v17l-7 3-19 3-25 1-32-1-23-3-7-3-3-4-1-4v-12l2-11 6-11 7-6 17-7 15-3z" fill="#F27D26"/>
<path transform="translate(400,848)" d="m0 0h31l20 6 11 6 2 4 3 1 5 9 2 6v18l-3 8-8 3-21 3-15 1h-21l-21-1-20-3-7-3-1-1v-12l3-15 2-6 2-1 2-5 6-7 12-7z" fill="#F27D26"/>
<path transform="translate(508,438)" d="m0 0 8 1 11 7 3 1v2l5 2 19 14 10 9 4 2 1 5-4 6-8 6h-2v2l-9 5-5 4h-2v2l-6 3h-2v2l-9 3v2l-9 4-7-1-10-5v-2l-5-1v-2l-4-1-7-4-4-4-13-9-8-7-2-6 11-10 13-10 19-13z" fill="#F19D3A"/>
<path transform="translate(691,482)" d="m0 0h18l9 3 9 6 3 5v14l-6 10-7 7-11 6-13 3h-10l-12-3-9-6-3-3-2-5v-12l3-6 9-10 5-3 7-3z" fill="#F5867A"/>
<path transform="translate(315,482)" d="m0 0h19l10 3v2l6 1v2l5 1 4 3v2h2l6 10 1 11-3 7-5 5-6 4-6 2-13 1-15-3-11-6-6-5-6-9-2-7v-9l3-6 8-6z" fill="#F5867A"/>
<path transform="translate(456,475)" d="m0 0 11 2 15 5 17 6 7 2 11-1 21-6 11-4 9-3h10l1 5-4 6-8 6h-2v2l-9 5-5 4h-2v2l-6 3h-2v2l-9 3v2l-9 4-7-1-10-5v-2l-5-1v-2l-4-1-7-4-4-4-13-9-8-7-2-6z" fill="#CA441D"/>
<path transform="translate(453,480)" d="m0 0 4 5 11 9 12 8v2l4 1 7 4v2l5 1v2l9 3 3 2 8-1 6-2v-2l6-3h3v-2l5-3h3v-2l12-8 4-1v-2l9-6 1 2-8 11-10 15-11 18-8 11-8 5-6 2-10-1-10-6-9-12-8-14-7-11-6-8v-3h-2l-9-13z" fill="#E5C8B3"/>
<path transform="translate(552,873)" d="m0 0 7 6 9 8 17 8 15 4 8 1h16l12-3 18-9v-2h2l3-9h3l3 12v17l-7 3-19 3-25 1-32-1-23-3-7-3-3-4-1-4v-12l2-11z" fill="#CB451F"/>
<path transform="translate(468,871)" d="m0 0 3 1 3 8v18l-3 8-8 3-21 3-15 1h-21l-21-1-20-3-7-3-1-1v-8l1-3 9 2 9 3 13 2h16l16-2 16-5 16-8 10-8 4-4z" fill="#CB4620"/>
<path transform="translate(546,120)" d="m0 0h2l-1 7-15 36 6-2 15-7 18-5h5l-1 8-8 16-8 10-2 2-19-1-34-1 2-5 6-8 10-15 7-11h2l2-5 10-15z" fill="#121624"/>
<path transform="translate(618,369)" d="m0 0h10l9 6 4 5 3 7v11l-4 9-7 7-7 3h-11l-8-4-5-5-4-6-1-5v-9l3-7h2v-2l3-2h3l1-2-1-2h5l2-1 1-2z" fill="#FCFBF9"/>
<path transform="translate(347,369)" d="m0 0h8l6 3 5 4 5 10 1 8-2 8-5 8-9 6-3 1h-10l-7-3-8-7-3-7v-11h2l1-2h-2l2-6 5-5 7-4h3v-2z" fill="#FCFBF9"/>
<path transform="translate(415,209)" d="m0 0h11l2 2-1 6-6 8-8 8-13 10-11 6-13 6-4 1h-9l-4-4 1-6 6-8 5-6 14-10 10-6 16-6z" fill="#D1AB9F"/>
<path transform="translate(412,448)" d="m0 0h8l7 3 4 5 1 4-8 11-10 9-12 7-14 4h-12l-3-1-2-7v-8l5-7 20-6 4-2 2-4 8-7z" fill="#4E4F51"/>
<path transform="translate(684,448)" d="m0 0h8l7 3 5 7-4 7-9 10-9 7-15 7-8 2-16 1 3-2v-2h-2l-1-3v-10l3-5h2v-2l5-2 13-3 4-3h2l2-4 8-7z" fill="#4E4F51"/>
<path transform="translate(542,376)" d="m0 0h1l-1 9-7 32-5 30-4-1-10-6-8-1-14 8-2-3v-12l2-3 7-6 3-1 3-6h2l1-3h2v-2l3-3h2l2-4 7-9h2v-3l7-6 3-5 2-1z" fill="#212533"/>
<path transform="translate(616,833)" d="m0 0 16 1 20 6 11 7 1 1v8l-4 9-1 2h-3l-7-8-9-5-10-4-16-2-19 1-15 3-17 7h-3l6-7h2v-2h2v-2l13-8 21-6z" fill="#D0A99D"/>
<path transform="translate(404,833)" d="m0 0 15 1 15 4 9 4 7 4v2l4 2 7 6 1 4-7-3-10-4-14-4h-31l-16 4-12 7-5 6-4-2-4-7v-9l12-8 13-4 10-2z" fill="#D0A99D"/>
<path transform="translate(277,633)" d="m0 0 4 2 1 1-1 10-4 12-9 19-6 12-7 13-4 10h-2v-5h-2l-4-27v-8l5-6h2v-2h2l2-4 9-10 1-2h2l2-5 2-3h2l1-4z" fill="#0F1422"/>
<path transform="translate(745,633)" d="m0 0 4 2 7 9 6 8 2 4h2l7 8 1 3 4 2 1 1v14l-4 29-3-1-2-5v-3h-2l-3-10-5-10v-4h-2l-11-23-5-14v-7z" fill="#0F1422"/>
<path transform="translate(315,482)" d="m0 0h19l10 3v2l6 1v2l5 1 4 3v2h2l6 10 1 11-3 7-5 5-6 4-6 2-13 1-15-3-11-6-6-5-6-9-2-7v-9l3-6 8-6zm0 2-11 5-5 4-2 4v10l5 10 5 5 9 7 12 4h17l7-1 8-5 4-5 1-3v-11l-6-11-10-7-8-4-7-2z" fill="#DBBAA9"/>
<path transform="translate(691,482)" d="m0 0h18l9 3 9 6 3 5v14l-6 10-7 7-11 6-13 3h-10l-12-3-9-6-3-3-2-5v-12l3-6 9-10 5-3 7-3zm-3 2-16 8-7 5-6 11v9l3 7 4 4 9 4 9 2h10l11-3 8-4 7-5v-2h2l6-10v-13l-4-6-6-4-8-3z" fill="#DAB8A8"/>
<path transform="translate(240,555)" d="m0 0 2 3 1 7-8 7-13 17-10 14-10 13h-2l2-6 15-25 10-15 5-5z" fill="#505153"/>
<path transform="translate(783,552)" d="m0 0 4 5 8 11 12 18 9 14 6 12 2 5-4-4-9-14-11-15-11-14-7-6z" fill="#525254"/>
<path transform="translate(567,150)" d="m0 0 3 1h-2v2l-10 6-28 14h-2l3-9 22-10z" fill="#373A43"/>
<path transform="translate(315,482)" d="m0 0h19l10 3v2l-10-2h-19l-11 5-5 5-1 2v10l5 10 4 6h-3l-7-10-2-7v-9l3-6 8-6z" fill="#DAB8A8"/>
<path transform="translate(658,508)" d="m0 0h1l2 13 5 6 9 4 9 2h10l11-3 8-4 6-4 1-2h2l1-2-1 4-7 6-9 5-13 3h-10l-12-3-9-6-3-3-1-6z" fill="#D8B5A6"/>
<path transform="translate(347,856)" d="m0 0 7 4 9 6 2 1-1 4-5-1-19-10-1-2 4-1 4 1z" fill="#282B38"/>
<path transform="translate(588,863)" d="m0 0h6l3 5-1 4-3 3h-6l-3-3v-6z" fill="#E6CAB5"/>
<path transform="translate(507,452)" d="m0 0 4 1 1 2v9l-2 10-2 1-3-10v-10z" fill="#E6CAB5"/>
<path transform="translate(387,863)" d="m0 0h7l2 3-1 7-6 2-5-4v-5z" fill="#E6CAB5"/>
<path transform="translate(673,857)" d="m0 0 3 1v3l-1 3-15 7h-2l-1-4 15-9z" fill="#1E222F"/>
<path transform="translate(714,718)" d="m0 0h1l1 6v13h2v15l-2 24h-1v-34z" fill="#232732"/>
<path transform="translate(305,521)" d="m0 0 4 2 9 6 10 3 16 1v2l-9 1-15-3-11-6z" fill="#D9B6A6"/>
<path transform="translate(531,447)" d="m0 0h2v2l5 2 13 10 6 4v2l4 2 7 6-2 1-11-9-13-10-12-8z" fill="#E1C3B0"/>
<path transform="translate(344,487)" d="m0 0 6 1v2l5 1 4 3v2h2l4 6 1 10-2-4-6-11-11-7z" fill="#D5B1A3"/>
<path transform="translate(277,390)" d="m0 0h1v8l-3 18-2 10h-1l1-18z" fill="#2D303B"/>
<path transform="translate(299,337)" d="m0 0 1 4-10 19-3 6h-2l2-5 5-12z" fill="#2E313B"/>
<path transform="translate(315,482)" d="m0 0h19l10 3v2l-10-2-22-1z" fill="#DCBCAB"/>
<path transform="translate(508,438)" d="m0 0 4 1v2l1 5-3 3-4-1v-9z" fill="#E2C3AD"/>
<path transform="translate(669,491)" d="m0 0 2 1-4 5h-2l-2 5-3 6h-2l1 13-2-2v-12l3-6z" fill="#DDBCAB"/>
<path transform="translate(640,400)" d="m0 0 2 1-1 4-7 8-5 2 2-4 2-1 1-3h2l2-5-2-1z" fill="#F3EADE"/>
<path transform="translate(309,484)" d="m0 0h6l-2 2-9 4-7 6-1-2 5-6z" fill="#D7B3A4"/>
<path transform="translate(667,861)" d="m0 0 2 1-3 3-1 4-7 2-1-4z" fill="#2D303A"/>
<path transform="translate(336,847)" d="m0 0 4 2 7 6v3l-3 1-5-1 2-3-4-5z" fill="#1E222E"/>
<path transform="translate(687,483)" d="m0 0 3 1-16 8-5 2 3-5 9-4z" fill="#D6B2A3"/>
<path transform="translate(695,381)" d="m0 0 4 1 5 7 3 5v6l-2-3-7-12z" fill="#F2E8DF"/>
<path transform="translate(358,371)" d="m0 0 4 2 5 5 1 2-4 1-6-7z" fill="#F2E8DD"/>
<path transform="translate(480,155)" d="m0 0 2 2 1 3v8l-3 3-1-3z" fill="#181C2A"/>
<path transform="translate(772,714)" d="m0 0h2l-2 11-3 12h-1l1-14 2-6z" fill="#3A3D45"/>
<path transform="translate(288,528)" d="m0 0 4 4 7 10-1 3-7-9-3-6z" fill="#2A2D39"/>
<path transform="translate(327,532)" d="m0 0 17 1v2l-9 1-7-1z" fill="#D5B1A2"/>
<path transform="translate(353,862)" d="m0 0 5 1 7 4-1 4-4-1v-2l-7-5z" fill="#242833"/>
<path transform="translate(722,518)" d="m0 0 1 3-8 7-3 2h-5l2-2 10-6 1-2h2z" fill="#D7B4A5"/>
<path transform="translate(658,508)" d="m0 0h1l2 13 5 6v2l-4-2-3-3-1-6z" fill="#D6B2A3"/>
<path transform="translate(467,464)" d="m0 0 2 1-11 10-6 5 1-4 10-9z" fill="#DFC0AE"/>
<path transform="translate(729,496)" d="m0 0h1v14l-6 10-1-3 5-8z" fill="#E0C1AE"/>
<path transform="translate(749,443)" d="m0 0h1l1 5v8l-2 4-1-4v-8z" fill="#F3EAE7"/>
<path transform="translate(715,274)" d="m0 0 5 4 7 10-1 2-4-4-3-5v-2l-5-2z" fill="#3A3D45"/>
<path transform="translate(762,365)" d="m0 0 2 4 3 12-1 4v-3l-2-1-1-8-2-5z" fill="#41434A"/>
<path transform="translate(309,780)" d="m0 0h1l2 11v4h-2l-2-7v-7z" fill="#252933"/>
<path transform="translate(705,530)" d="m0 0h5l-4 3-7 2h-6l1-2z" fill="#DCBBAA"/>
<path transform="translate(631,371)" d="m0 0 6 4 3 3-1 2h-3l-4-5-5-1 4-1z" fill="#F4ECDE"/>
<path transform="translate(755,344)" d="m0 0 2 3 5 15-1 3-3-9-3-6z" fill="#3D4047"/>
<path transform="translate(723,489)" d="m0 0 4 2 2 3v15h-1l-1-12-4-6z" fill="#D7B3A4"/>
<path transform="translate(239,671)" d="m0 0h4l-1 2-3 1-5 5-3 2 2-6z" fill="#363942"/>
<path transform="translate(840,652)" d="m0 0 2 3 5 13-1 4-4-10-2-6z" fill="#3C3F46"/>
<path transform="translate(346,485)" d="m0 0 5 1 5 2-1 3-5-1v-2l-6-1z" fill="#EDDFCF"/>
<path transform="translate(291,352)" d="m0 0 1 4-5 10h-2l2-5z" fill="#2B2E3A"/>
<path transform="translate(557,337)" d="m0 0 1 4-6 11-1-2 4-10z" fill="#2B2E3A"/>
<path transform="translate(587,304)" d="m0 0h2l-1 3-8 6-3-1z" fill="#2B2E39"/>
<path transform="translate(280,515)" d="m0 0h3l4 8-1 4-4-7z" fill="#2C303B"/>
<path transform="translate(596,384)" d="m0 0h2l-1 11h-1l-1-3-4 2 2-5z" fill="#2A2E38"/>
<path transform="translate(466,339)" d="m0 0 2 2 4 8-1 4-5-9z" fill="#2B2F39"/>
<path transform="translate(697,254)" d="m0 0 7 6 4 4-1 2-2-1v-2h-2v-2l-3-1v-2h-2v-2l-2-1z" fill="#3B3E46"/>
<path transform="translate(749,470)" d="m0 0h1l-1 16h-2v-9z" fill="#EFE1D7"/>
<path transform="translate(556,465)" d="m0 0 1 2 4 2 7 6-2 1-10-8z" fill="#E0C1AE"/>
<path transform="translate(492,440)" d="m0 0 1 2 7-1-2 4-5 2z" fill="#282B35"/>
<path transform="translate(608,292)" d="m0 0m-1 1m-1 1m-1 1m-2 1 3 1-2 2-6 2-4-1z" fill="#2A2D39"/>
<path transform="translate(302,548)" d="m0 0 4 2 7 6-1 3-10-10z" fill="#252935"/>
<path transform="translate(479,150)" d="m0 0 3 3-1 4-1 11h-1z" fill="#272A37"/>
</svg>
